<mxfile host="app.diagrams.net" modified="2021-12-30T15:38:27.626Z" agent="5.0 (X11; Linux x86_64) AppleWebKit/537.36 (KHTML, like Gecko) Chrome/96.0.4664.45 Safari/537.36" etag="m8ywnjtiYSlOEARGNkpx" version="16.1.0" type="github">
  <diagram id="yy4K6WKyhYe_ZboL2R0n" name="第 1 页">
    <mxGraphModel dx="569" dy="315" grid="1" gridSize="10" guides="1" tooltips="1" connect="1" arrows="1" fold="1" page="1" pageScale="1" pageWidth="850" pageHeight="1100" math="0" shadow="0">
      <root>
        <mxCell id="0" />
        <mxCell id="1" parent="0" />
        <mxCell id="WE8VuPPP_bmdkz0ns6AH-60" value="" style="rounded=0;fontSize=5;dashed=1;" parent="1" vertex="1">
          <mxGeometry x="37.32" y="308.5" width="422.68" height="211.5" as="geometry" />
        </mxCell>
        <mxCell id="WE8VuPPP_bmdkz0ns6AH-1" value="" style="rounded=0;fontSize=10;strokeWidth=1;" parent="1" vertex="1">
          <mxGeometry x="40" y="328.5" width="50" height="100" as="geometry" />
        </mxCell>
        <mxCell id="WE8VuPPP_bmdkz0ns6AH-4" value="数据源k" style="rounded=0;fontSize=7;strokeWidth=1;" parent="1" vertex="1">
          <mxGeometry x="51.25" y="408.5" width="27.5" height="11.5" as="geometry" />
        </mxCell>
        <mxCell id="WE8VuPPP_bmdkz0ns6AH-5" value="原始数据" style="text;strokeColor=none;fillColor=none;align=center;verticalAlign=middle;rounded=0;sketch=0;fontStyle=1;fontSize=9;" parent="1" vertex="1">
          <mxGeometry x="40.8599999999999" y="308.5" width="48.29" height="20" as="geometry" />
        </mxCell>
        <mxCell id="WE8VuPPP_bmdkz0ns6AH-7" value="" style="rounded=0;" parent="1" vertex="1">
          <mxGeometry x="232.41" y="458.5" width="59.82" height="40" as="geometry" />
        </mxCell>
        <mxCell id="WE8VuPPP_bmdkz0ns6AH-8" value="" style="curved=1;endArrow=none;endFill=0;" parent="1" edge="1">
          <mxGeometry width="50" height="50" relative="1" as="geometry">
            <mxPoint x="185.89000000000053" y="425" as="sourcePoint" />
            <mxPoint x="185.89000000000053" y="405" as="targetPoint" />
            <Array as="points">
              <mxPoint x="194.89000000000007" y="415" />
              <mxPoint x="174.89000000000007" y="415" />
            </Array>
          </mxGeometry>
        </mxCell>
        <mxCell id="WE8VuPPP_bmdkz0ns6AH-9" value="线程池" style="text;strokeColor=none;fillColor=none;align=center;verticalAlign=middle;rounded=0;sketch=0;fontSize=9;fontStyle=1" parent="1" vertex="1">
          <mxGeometry x="242.19999999999993" y="498.5" width="40.25" height="19" as="geometry" />
        </mxCell>
        <mxCell id="WE8VuPPP_bmdkz0ns6AH-10" value="" style="endArrow=openThin;strokeWidth=1;endFill=0;" parent="1" edge="1">
          <mxGeometry width="50" height="50" relative="1" as="geometry">
            <mxPoint x="90" y="380" as="sourcePoint" />
            <mxPoint x="160" y="380" as="targetPoint" />
          </mxGeometry>
        </mxCell>
        <mxCell id="WE8VuPPP_bmdkz0ns6AH-23" value="" style="edgeStyle=orthogonalEdgeStyle;rounded=0;orthogonalLoop=1;jettySize=auto;fontSize=4;endArrow=openThin;endFill=0;" parent="1" source="WE8VuPPP_bmdkz0ns6AH-11" edge="1">
          <mxGeometry relative="1" as="geometry">
            <mxPoint x="280" y="380" as="targetPoint" />
          </mxGeometry>
        </mxCell>
        <mxCell id="WE8VuPPP_bmdkz0ns6AH-11" value="" style="rounded=1;" parent="1" vertex="1">
          <mxGeometry x="159.78999999999996" y="360" width="50.21" height="40" as="geometry" />
        </mxCell>
        <mxCell id="WE8VuPPP_bmdkz0ns6AH-12" value="Window" style="text;strokeColor=none;fillColor=none;align=center;verticalAlign=middle;rounded=0;" parent="1" vertex="1">
          <mxGeometry x="165" y="340" width="40" height="20" as="geometry" />
        </mxCell>
        <mxCell id="WE8VuPPP_bmdkz0ns6AH-20" value="b" style="rounded=0;fontSize=13;" parent="1" vertex="1">
          <mxGeometry x="110" y="360" width="12" height="12" as="geometry" />
        </mxCell>
        <mxCell id="WE8VuPPP_bmdkz0ns6AH-21" value="数据源1" style="text;strokeColor=none;fillColor=none;align=center;verticalAlign=middle;rounded=0;fontSize=6;" parent="1" vertex="1">
          <mxGeometry x="122" y="362.5" width="24" height="10" as="geometry" />
        </mxCell>
        <mxCell id="WE8VuPPP_bmdkz0ns6AH-26" value="" style="edgeStyle=orthogonalEdgeStyle;rounded=0;orthogonalLoop=1;jettySize=auto;fontSize=4;endArrow=openThin;endFill=0;" parent="1" source="WE8VuPPP_bmdkz0ns6AH-22" edge="1">
          <mxGeometry relative="1" as="geometry">
            <mxPoint x="400" y="380" as="targetPoint" />
          </mxGeometry>
        </mxCell>
        <mxCell id="WE8VuPPP_bmdkz0ns6AH-22" value="" style="rounded=1;" parent="1" vertex="1">
          <mxGeometry x="280" y="360" width="50.21" height="40" as="geometry" />
        </mxCell>
        <mxCell id="WE8VuPPP_bmdkz0ns6AH-24" value="Agg" style="text;strokeColor=none;fillColor=none;align=center;verticalAlign=middle;rounded=0;" parent="1" vertex="1">
          <mxGeometry x="285.1" y="340" width="40" height="20" as="geometry" />
        </mxCell>
        <mxCell id="WE8VuPPP_bmdkz0ns6AH-25" value="" style="rounded=1;" parent="1" vertex="1">
          <mxGeometry x="400.00000000000006" y="360" width="50.21" height="40" as="geometry" />
        </mxCell>
        <mxCell id="WE8VuPPP_bmdkz0ns6AH-27" value="Filter" style="text;strokeColor=none;fillColor=none;align=center;verticalAlign=middle;rounded=0;" parent="1" vertex="1">
          <mxGeometry x="405.1" y="340" width="40" height="20" as="geometry" />
        </mxCell>
        <mxCell id="WE8VuPPP_bmdkz0ns6AH-28" value="" style="curved=1;endArrow=none;endFill=0;dashed=1;" parent="1" edge="1">
          <mxGeometry width="50" height="50" relative="1" as="geometry">
            <mxPoint x="263.32000000000056" y="488.5" as="sourcePoint" />
            <mxPoint x="263.32000000000056" y="468.5" as="targetPoint" />
            <Array as="points">
              <mxPoint x="272.32000000000005" y="478.5" />
              <mxPoint x="252.32000000000008" y="478.5" />
            </Array>
          </mxGeometry>
        </mxCell>
        <mxCell id="WE8VuPPP_bmdkz0ns6AH-29" value="" style="endArrow=none;dashed=1;dashPattern=1 3;strokeWidth=1;rounded=0;fontSize=4;exitX=0.5;exitY=0;exitDx=0;exitDy=0;" parent="1" source="WE8VuPPP_bmdkz0ns6AH-7" edge="1">
          <mxGeometry width="50" height="50" relative="1" as="geometry">
            <mxPoint x="182.41" y="498.5" as="sourcePoint" />
            <mxPoint x="190" y="429" as="targetPoint" />
          </mxGeometry>
        </mxCell>
        <mxCell id="WE8VuPPP_bmdkz0ns6AH-30" value="分配 " style="text;strokeColor=none;fillColor=none;align=center;verticalAlign=middle;rounded=0;fontSize=8;" parent="1" vertex="1">
          <mxGeometry x="232.41" y="440" width="25.31" height="10" as="geometry" />
        </mxCell>
        <mxCell id="WE8VuPPP_bmdkz0ns6AH-38" value="" style="rounded=0;fontSize=5;" parent="1" vertex="1">
          <mxGeometry x="244.82000000000002" y="338" width="17" height="37" as="geometry" />
        </mxCell>
        <mxCell id="WE8VuPPP_bmdkz0ns6AH-39" value="w" style="rounded=0;" parent="1" vertex="1">
          <mxGeometry x="247.82000000000002" y="339.5" width="11" height="10" as="geometry" />
        </mxCell>
        <mxCell id="WE8VuPPP_bmdkz0ns6AH-40" value="w" style="rounded=0;" parent="1" vertex="1">
          <mxGeometry x="247.82000000000002" y="352" width="11" height="10" as="geometry" />
        </mxCell>
        <mxCell id="WE8VuPPP_bmdkz0ns6AH-41" value="..." style="rounded=0;fontSize=9;verticalAlign=bottom;" parent="1" vertex="1">
          <mxGeometry x="247.82000000000002" y="364.5" width="11" height="9" as="geometry" />
        </mxCell>
        <mxCell id="WE8VuPPP_bmdkz0ns6AH-53" value="" style="endArrow=openThin;rounded=0;fontSize=5;strokeWidth=1;endFill=0;exitX=0.5;exitY=0;exitDx=0;exitDy=0;entryX=0.5;entryY=1;entryDx=0;entryDy=0;" parent="1" source="WE8VuPPP_bmdkz0ns6AH-4" edge="1">
          <mxGeometry width="50" height="50" relative="1" as="geometry">
            <mxPoint x="90" y="448.5" as="sourcePoint" />
            <mxPoint x="65.00000000000006" y="395.5" as="targetPoint" />
          </mxGeometry>
        </mxCell>
        <mxCell id="WE8VuPPP_bmdkz0ns6AH-54" value="" style="endArrow=openThin;rounded=0;fontSize=5;strokeWidth=1;endFill=0;entryX=0.5;entryY=1;entryDx=0;entryDy=0;exitX=0.5;exitY=0;exitDx=0;exitDy=0;" parent="1" edge="1">
          <mxGeometry width="50" height="50" relative="1" as="geometry">
            <mxPoint x="65.00000000000006" y="385.5" as="sourcePoint" />
            <mxPoint x="65" y="372" as="targetPoint" />
          </mxGeometry>
        </mxCell>
        <mxCell id="WE8VuPPP_bmdkz0ns6AH-55" value="" style="endArrow=openThin;rounded=0;fontSize=5;strokeWidth=1;endFill=0;exitX=0.5;exitY=0;exitDx=0;exitDy=0;" parent="1" edge="1">
          <mxGeometry width="50" height="50" relative="1" as="geometry">
            <mxPoint x="65" y="362" as="sourcePoint" />
            <mxPoint x="65" y="348.5" as="targetPoint" />
          </mxGeometry>
        </mxCell>
        <mxCell id="WE8VuPPP_bmdkz0ns6AH-56" value="" style="endArrow=openThin;rounded=0;fontSize=5;strokeWidth=1;endFill=0;exitX=1;exitY=0.5;exitDx=0;exitDy=0;entryX=1.004;entryY=0.151;entryDx=0;entryDy=0;entryPerimeter=0;" parent="1" target="WE8VuPPP_bmdkz0ns6AH-1" edge="1">
          <mxGeometry width="50" height="50" relative="1" as="geometry">
            <mxPoint x="80.00000000000006" y="343.5" as="sourcePoint" />
            <mxPoint x="75" y="358.5" as="targetPoint" />
          </mxGeometry>
        </mxCell>
        <mxCell id="WE8VuPPP_bmdkz0ns6AH-58" value="b: 块数据" style="text;strokeColor=none;fillColor=none;align=center;verticalAlign=middle;rounded=0;sketch=0;fontSize=7;" parent="1" vertex="1">
          <mxGeometry x="106.12" y="380.75" width="43.88" height="17.75" as="geometry" />
        </mxCell>
        <mxCell id="WE8VuPPP_bmdkz0ns6AH-59" value="w: 窗口数据" style="text;strokeColor=none;fillColor=none;align=center;verticalAlign=middle;rounded=0;sketch=0;fontSize=7;" parent="1" vertex="1">
          <mxGeometry x="230.38" y="380.75" width="43.88" height="17.75" as="geometry" />
        </mxCell>
        <mxCell id="hMwzmuhg0w4liLA6x3To-3" value="数据源3" style="rounded=0;fontSize=7;strokeWidth=1;" vertex="1" parent="1">
          <mxGeometry x="51.25" y="384.5" width="27.5" height="11.5" as="geometry" />
        </mxCell>
        <mxCell id="hMwzmuhg0w4liLA6x3To-4" value="数据源2" style="rounded=0;fontSize=7;strokeWidth=1;" vertex="1" parent="1">
          <mxGeometry x="51.25" y="361.5" width="27.5" height="11.5" as="geometry" />
        </mxCell>
        <mxCell id="hMwzmuhg0w4liLA6x3To-5" value="数据源1" style="rounded=0;fontSize=7;strokeWidth=1;" vertex="1" parent="1">
          <mxGeometry x="51.25" y="338" width="27.5" height="11.5" as="geometry" />
        </mxCell>
        <mxCell id="hMwzmuhg0w4liLA6x3To-14" value="" style="rounded=0;fontSize=5;" vertex="1" parent="1">
          <mxGeometry x="296.6" y="361.5" width="17" height="37" as="geometry" />
        </mxCell>
        <mxCell id="hMwzmuhg0w4liLA6x3To-15" value="w" style="rounded=0;" vertex="1" parent="1">
          <mxGeometry x="299.6" y="363" width="11" height="10" as="geometry" />
        </mxCell>
        <mxCell id="hMwzmuhg0w4liLA6x3To-16" value="w" style="rounded=0;" vertex="1" parent="1">
          <mxGeometry x="299.6" y="375.5" width="11" height="10" as="geometry" />
        </mxCell>
        <mxCell id="hMwzmuhg0w4liLA6x3To-17" value="..." style="rounded=0;fontSize=9;verticalAlign=bottom;" vertex="1" parent="1">
          <mxGeometry x="299.6" y="388" width="11" height="9" as="geometry" />
        </mxCell>
        <mxCell id="hMwzmuhg0w4liLA6x3To-18" value="" style="rounded=0;fontSize=5;" vertex="1" parent="1">
          <mxGeometry x="360.00000000000006" y="338" width="17" height="37" as="geometry" />
        </mxCell>
        <mxCell id="hMwzmuhg0w4liLA6x3To-19" value="w" style="rounded=0;" vertex="1" parent="1">
          <mxGeometry x="363.00000000000006" y="339.5" width="11" height="10" as="geometry" />
        </mxCell>
        <mxCell id="hMwzmuhg0w4liLA6x3To-20" value="w" style="rounded=0;" vertex="1" parent="1">
          <mxGeometry x="363.00000000000006" y="352" width="11" height="10" as="geometry" />
        </mxCell>
        <mxCell id="hMwzmuhg0w4liLA6x3To-21" value="..." style="rounded=0;fontSize=9;verticalAlign=bottom;" vertex="1" parent="1">
          <mxGeometry x="363.00000000000006" y="364.5" width="11" height="9" as="geometry" />
        </mxCell>
        <mxCell id="hMwzmuhg0w4liLA6x3To-22" value="" style="rounded=0;fontSize=5;" vertex="1" parent="1">
          <mxGeometry x="416.6" y="361.5" width="17" height="37" as="geometry" />
        </mxCell>
        <mxCell id="hMwzmuhg0w4liLA6x3To-23" value="w" style="rounded=0;" vertex="1" parent="1">
          <mxGeometry x="419.6" y="363" width="11" height="10" as="geometry" />
        </mxCell>
        <mxCell id="hMwzmuhg0w4liLA6x3To-24" value="w" style="rounded=0;" vertex="1" parent="1">
          <mxGeometry x="419.6" y="375.5" width="11" height="10" as="geometry" />
        </mxCell>
        <mxCell id="hMwzmuhg0w4liLA6x3To-25" value="..." style="rounded=0;fontSize=9;verticalAlign=bottom;" vertex="1" parent="1">
          <mxGeometry x="419.6" y="388" width="11" height="9" as="geometry" />
        </mxCell>
        <mxCell id="hMwzmuhg0w4liLA6x3To-26" value="b" style="rounded=0;fontSize=13;" vertex="1" parent="1">
          <mxGeometry x="178.89" y="374.5" width="12" height="12" as="geometry" />
        </mxCell>
      </root>
    </mxGraphModel>
  </diagram>
</mxfile>
